<svg width="30" height="30" viewBox="0 0 30 30" fill="none" xmlns="http://www.w3.org/2000/svg">
<path fill-rule="evenodd" clip-rule="evenodd" d="M20.6569 22.0706C21.0474 22.4611 21.6806 22.4611 22.0711 22.0706C22.4616 21.6801 22.4616 21.0469 22.0711 20.6564L16.4143 14.9995L22.0711 9.34266C22.4616 8.95213 22.4616 8.31897 22.0711 7.92844C21.6806 7.53792 21.0474 7.53792 20.6569 7.92844L15 13.5853L9.34319 7.92844C8.95267 7.53792 8.3195 7.53792 7.92898 7.92844C7.53845 8.31897 7.53845 8.95213 7.92898 9.34266L13.5858 14.9995L7.92898 20.6564C7.53845 21.0469 7.53845 21.6801 7.92898 22.0706C8.3195 22.4611 8.95267 22.4611 9.34319 22.0706L15 16.4137L20.6569 22.0706Z" fill="black" fill-opacity="0.4"/>
</svg>
