<svg width="32" height="32" viewBox="0 0 32 32" fill="none" xmlns="http://www.w3.org/2000/svg">
<path d="M12.2293 17.8854C12.1019 18.0084 12.0003 18.1555 11.9305 18.3182C11.8606 18.4808 11.8238 18.6558 11.8223 18.8328C11.8207 19.0099 11.8545 19.1854 11.9215 19.3493C11.9885 19.5132 12.0876 19.662 12.2127 19.7872C12.3379 19.9124 12.4868 20.0114 12.6507 20.0785C12.8145 20.1455 12.9901 20.1792 13.1671 20.1777C13.3442 20.1762 13.5191 20.1394 13.6818 20.0695C13.8445 19.9996 13.9916 19.898 14.1146 19.7707L21.6573 12.2294C22.4075 11.4792 22.8289 10.4617 22.8289 9.4007C22.8289 8.33974 22.4075 7.32224 21.6573 6.57203C20.9071 5.82182 19.8896 5.40036 18.8286 5.40036C17.7676 5.40036 16.7501 5.82182 15.9999 6.57203L8.45727 14.1147C7.82537 14.7309 7.32211 15.4664 6.97668 16.2786C6.63125 17.0907 6.45053 17.9634 6.445 18.846C6.43947 19.7286 6.60924 20.6035 6.94447 21.4199C7.27969 22.2364 7.7737 22.9781 8.39782 23.6022C9.02195 24.2262 9.76378 24.7201 10.5803 25.0552C11.3968 25.3903 12.2717 25.56 13.1542 25.5543C14.0368 25.5487 14.9095 25.3678 15.7216 25.0223C16.5338 24.6767 17.2692 24.1734 17.8853 23.5414L25.4279 16L27.3133 17.8854L19.7706 25.428C18.9039 26.2948 17.8749 26.9823 16.7425 27.4513C15.6101 27.9204 14.3963 28.1618 13.1706 28.1618C11.9449 28.1618 10.7311 27.9204 9.59871 27.4513C8.46628 26.9823 7.43733 26.2948 6.5706 25.428C5.70388 24.5613 5.01635 23.5324 4.54729 22.3999C4.07822 21.2675 3.83679 20.0538 3.83679 18.828C3.83679 17.6023 4.07822 16.3886 4.54729 15.2561C5.01635 14.1237 5.70388 13.0948 6.5706 12.228L14.1146 4.6867C15.3756 3.49082 17.0536 2.8345 18.7914 2.85752C20.5291 2.88054 22.1892 3.58108 23.418 4.80995C24.6469 6.03881 25.3474 7.69888 25.3704 9.43661C25.3935 11.1743 24.7372 12.8524 23.5413 14.1134L15.9999 21.6587C15.6284 22.0302 15.1873 22.3248 14.7019 22.5258C14.2165 22.7268 13.6962 22.8302 13.1708 22.8302C12.6454 22.8301 12.1252 22.7266 11.6398 22.5255C11.1544 22.3243 10.7134 22.0296 10.3419 21.658C9.59173 20.9076 9.17033 19.89 9.17046 18.8289C9.17052 18.3035 9.27407 17.7833 9.47518 17.2979C9.6763 16.8125 9.97105 16.3715 10.3426 16L17.8853 8.45737L19.7706 10.3427L12.2293 17.8854Z" fill="black" fill-opacity="0.4"/>
</svg>
