<svg width="94" height="40" viewBox="0 0 94 40" fill="none" xmlns="http://www.w3.org/2000/svg">
<path d="M6.12 39.9199C9.49998 39.9199 12.24 37.1799 12.24 33.7999C12.24 30.4199 9.49998 27.6799 6.12 27.6799C2.74002 27.6799 0 30.4199 0 33.7999C0 37.1799 2.74002 39.9199 6.12 39.9199Z" fill="#EB6161"/>
<path fill-rule="evenodd" clip-rule="evenodd" d="M25.3995 14.5201C26.1995 14.5201 26.8395 15.1601 26.8395 15.9601L26.7595 27.6801C26.7595 34.3601 21.3995 39.8001 14.7195 39.9201H14.5195V27.7201H14.5595L14.5995 16.0001C14.5995 15.2001 15.2395 14.5601 16.0395 14.5601H25.3995V14.5201ZM44.1995 14.5201C44.9995 14.5201 45.6395 15.1601 45.6395 15.9601V32.3601C45.6395 33.1601 44.9995 33.8001 44.1995 33.8001H34.8395C34.0395 33.8001 33.3995 33.1601 33.3995 32.3601V15.9601C33.3995 15.1601 34.0395 14.5201 34.8395 14.5201H44.1995ZM58.9195 14.4801H59.1195C65.1195 14.5601 69.9995 19.4001 70.1595 25.4001V32.3201C70.1595 33.1201 69.5195 33.7601 68.7195 33.7601H53.5995C52.7995 33.7601 52.1595 33.1201 52.1595 32.3201V15.9201C52.1595 15.1201 52.7995 14.4801 53.5995 14.4801H58.9195ZM83.6795 33.6001C78.6395 33.2801 74.5995 29.0801 74.5995 23.9601C74.5995 18.6401 78.9195 14.3201 84.2395 14.3201C89.3595 14.3201 93.5595 18.3201 93.8795 23.4001V32.1601C93.8795 32.9601 93.2395 33.6001 92.4395 33.6001H83.6795Z" fill="#009191"/>
<path d="M39.4994 12.24C42.8794 12.24 45.6194 9.49998 45.6194 6.12C45.6194 2.74002 42.8794 0 39.4994 0C36.1194 0 33.3794 2.74002 33.3794 6.12C33.3794 9.49998 36.1194 12.24 39.4994 12.24Z" fill="#FBCB67"/>
</svg>
