<svg width="32" height="32" viewBox="0 0 32 32" fill="none" xmlns="http://www.w3.org/2000/svg">
<path d="M19.161 12.9756H19.2884C21.8268 13.0736 23.248 14.0929 24.3849 15.5924C23.8654 20.787 19.308 24.5799 14.1331 24.3741C11.4966 24.2173 9.2032 23.0412 7.55664 21.2574C10.3695 17.4056 14.9074 13.054 19.0336 12.9756H19.161Z" fill="#FFCC66"/>
<path d="M20.3665 17.3177C21.1898 17.1119 21.7974 16.8571 21.9641 16.7885C23.3068 16.22 22.8755 16.4063 24.3849 15.5928C24.2771 16.6905 23.9831 17.7294 23.542 18.6801C21.9053 22.2182 18.2103 24.5411 14.1331 24.3744C11.4966 24.2176 9.2032 23.0415 7.55664 21.2577C10.3695 17.406 11.4574 17.7294 15.5738 17.651L18.3867 17.602C19.357 17.5628 20.3665 17.3177 20.3665 17.3177Z" fill="#FF9F73"/>
<path d="M5.28125 17.6993C6.27115 16.2879 7.8491 14.8864 9.96611 15.4549C13.9845 16.6016 17.7677 18.9636 20.0709 18.895C22.2663 18.8362 23.1484 18.1991 24.1089 17.3366C22.9426 21.6491 18.7674 24.6384 14.0825 24.4521C9.8387 24.1973 6.45737 21.3844 5.28125 17.6993Z" fill="#FF7673"/>
<path d="M25.2269 22.8452L29.1473 26.3638C29.9608 27.0891 30.0196 28.3338 29.2943 29.1473C28.569 29.9509 27.3439 30.0195 26.5304 29.3139L26.501 29.2943L22.365 25.5797C23.4529 24.8152 24.4134 23.8939 25.2269 22.8452ZM3.01792 14.0146C3.36095 7.57533 8.9867 2.66505 15.4259 3.01788C21.8652 3.48833 26.9029 8.98667 26.4324 15.4259C25.962 21.8651 20.4636 26.7754 14.0146 26.4324C7.56556 26.0893 2.66508 20.4538 3.01792 14.0146ZM15.2887 5.01728C10.0158 4.80166 5.28194 8.88866 5.06632 14.1616C4.8507 19.4345 8.82989 24.0606 14.2106 24.384C19.4835 24.5996 24.1096 20.6204 24.433 15.2397C24.6486 10.0256 20.7479 5.43872 15.4553 5.02708L15.2887 5.01728Z" fill="#009999"/>
</svg>
