<svg width="20" height="20" viewBox="0 0 20 20" fill="none" xmlns="http://www.w3.org/2000/svg">
<path d="M9.57719 3.16707C13.151 3.16707 16.0586 6.07461 16.0586 9.64848C16.0586 13.2223 13.151 16.1299 9.57719 16.1299C6.00332 16.1299 3.09578 13.2223 3.09578 9.64848C3.09578 6.07461 6.0033 3.16707 9.57719 3.16707ZM9.57719 1.39941C5.02139 1.39941 1.32812 5.09268 1.32812 9.64848C1.32812 14.2042 5.02139 17.8975 9.57719 17.8975C14.133 17.8975 17.8262 14.2042 17.8262 9.64848C17.8262 5.09268 14.1329 1.39941 9.57719 1.39941Z" fill="#666666"/>
<path d="M18.0224 17.8975C17.7963 17.8975 17.5702 17.8112 17.3975 17.6385L15.0407 15.2817C14.6954 14.9367 14.6954 14.3768 15.0407 14.0319C15.3859 13.6866 15.9452 13.6866 16.2905 14.0319L18.6473 16.3888C18.9926 16.7337 18.9926 17.2936 18.6473 17.6385C18.4747 17.8112 18.2486 17.8975 18.0224 17.8975Z" fill="#666666"/>
</svg>
