<svg width="30" height="30" viewBox="0 0 30 30" fill="none" xmlns="http://www.w3.org/2000/svg">
<path d="M11.229 15.7784C9.56638 15.7784 8.21785 17.127 8.21785 18.7896V26.3218C8.21785 27.9844 9.56638 29.333 11.229 29.333C12.8917 29.333 14.2402 27.9844 14.2402 26.3218V18.7896C14.239 17.127 12.8905 15.7784 11.229 15.7784Z" fill="#EB5757"/>
<path d="M0.688553 18.7897C0.688553 20.4535 2.03828 21.8032 3.70214 21.8032C5.366 21.8032 6.71572 20.4535 6.71572 18.7897V15.7761H3.70453C3.70333 15.7761 3.70333 15.7761 3.70214 15.7761C2.03828 15.7761 0.688553 17.1258 0.688553 18.7897Z" fill="#EB5757"/>
<path d="M11.2327 0.666321C11.2315 0.666321 11.2303 0.666321 11.2291 0.666321C9.56522 0.666321 8.2155 2.01604 8.2155 3.6799C8.2155 5.34377 9.56522 6.69349 11.2291 6.69349H14.2403C14.2403 4.98424 14.2403 5.3999 14.2403 3.67393C14.2391 2.01246 12.8929 0.666321 11.2327 0.666321Z" fill="#56CCF2"/>
<path d="M3.67987 14.0282H11.2264C12.8902 14.0282 14.24 12.6785 14.24 11.0147C14.24 9.35079 12.8902 8.00107 11.2264 8.00107H3.67987C2.01601 8.00107 0.66629 9.35079 0.66629 11.0147C0.66629 12.6785 2.01601 14.0282 3.67987 14.0282Z" fill="#56CCF2"/>
<path d="M26.2958 8.22021C24.6343 8.22021 23.2882 9.56635 23.2882 11.2278V11.2338V14.2474H26.2994C27.9632 14.2474 29.3129 12.8977 29.3129 11.2338C29.3129 9.56994 27.9632 8.22021 26.2994 8.22021C26.2982 8.22021 26.297 8.22021 26.2958 8.22021Z" fill="#6FCF97"/>
<path d="M15.7655 3.67987V11.2347C15.7655 12.8974 17.114 14.2459 18.7767 14.2459C20.4394 14.2459 21.7879 12.8974 21.7879 11.2347V3.67987C21.7879 2.0172 20.4394 0.668671 18.7767 0.668671C17.114 0.668671 15.7655 2.0172 15.7655 3.67987Z" fill="#6FCF97"/>
<path d="M21.7859 26.3193C21.7859 24.6566 20.4374 23.3081 18.7747 23.3081H15.7635V26.3217C15.7647 27.9832 17.1121 29.3305 18.7747 29.3305C20.4374 29.3305 21.7859 27.982 21.7859 26.3193Z" fill="#F2C94C"/>
<path d="M26.3213 15.7761H18.7748C17.1109 15.7761 15.7612 17.1258 15.7612 18.7897C15.7612 20.4535 17.1109 21.8032 18.7748 21.8032H26.3213C27.9852 21.8032 29.3349 20.4535 29.3349 18.7897C29.3349 17.1258 27.9852 15.7761 26.3213 15.7761Z" fill="#F2C94C"/>
</svg>
